<svg width="21" height="16" viewBox="0 0 21 16" fill="none" xmlns="http://www.w3.org/2000/svg">
<path d="M9.17878 15.5392C9.27052 15.6813 9.39329 15.7975 9.5365 15.8778C9.6797 15.9581 9.83906 16 10.0008 16C10.1626 16 10.322 15.9581 10.4652 15.8778C10.6084 15.7975 10.7312 15.6813 10.8229 15.5392L19.8236 1.67349C19.9278 1.51356 19.9889 1.32624 20.0003 1.13188C20.0116 0.937514 19.9728 0.743547 19.8881 0.571048C19.8034 0.398548 19.6759 0.254114 19.5196 0.153438C19.3633 0.0527623 19.1841 -0.000305413 19.0015 1.32221e-06H1.00014C0.817966 0.000803837 0.639447 0.054554 0.483777 0.155471C0.328107 0.256388 0.201177 0.400654 0.116636 0.572754C0.0320958 0.744855 -0.00685661 0.938278 0.0039682 1.13222C0.014793 1.32617 0.0749855 1.5133 0.178072 1.67349L9.17878 15.5392Z" fill="white"/>
</svg>
