<svg xmlns="http://www.w3.org/2000/svg" viewBox="0 0 60 60"><defs><style>.cls-1{fill:#ceced0;opacity:0.3;}.cls-2{fill:#e85f5b;}.cls-3{fill:#fff;}</style></defs><g id="Layer_2" data-name="Layer 2"><g id="Layer_1-2" data-name="Layer 1"><g id="Active_Orbit_-_Activity_-_Today_1" data-name="Active Orbit - Activity - Today 1"><circle id="Ellipse_87-3" data-name="Ellipse 87-3" class="cls-1" cx="30" cy="30" r="30"/><g id="Group_862" data-name="Group 862"><circle id="Ellipse_86" data-name="Ellipse 86" class="cls-2" cx="30" cy="30" r="23"/><path id="Path_235-3" data-name="Path 235-3" class="cls-3" d="M42.65,25.74a2.41,2.41,0,0,0-2.41-2.41H37.58A3.54,3.54,0,0,0,34.2,18.5c-1.33,0-2.66,1.33-3.62,2.9-1-1.57-2.3-2.9-3.63-2.9a3.55,3.55,0,0,0-3.38,4.83H20.91a2.41,2.41,0,0,0-2.41,2.41v4.83h1.21v9.67a2.41,2.41,0,0,0,2.41,2.41H39a2.41,2.41,0,0,0,2.41-2.41V30.58h1.21Zm-2.41,2.42H31.78V25.74h8.46Zm-6-7.25A1.16,1.16,0,0,1,35.41,22v.14a1.14,1.14,0,0,1-1.07,1.21H32.27A5.27,5.27,0,0,1,34.2,20.91Zm-8.46,1.21a1.12,1.12,0,0,1,1-1.2h.07c.48.13,1.45,1.45,2.06,2.42H27a1.13,1.13,0,0,1-1.2-1.07A.66.66,0,0,1,25.74,22.12Zm-4.83,3.62h8.46v2.42H20.91Zm1.21,4.83h7.25v9.67H22.12ZM39,40.24H31.78V30.58H39Z"/></g></g></g></g></svg>