<svg width="32" height="36" viewBox="0 0 32 36" fill="none" xmlns="http://www.w3.org/2000/svg">
<path d="M28.9423 18.9291V17.0587L31.2024 15.0049C31.619 14.6235 31.8924 14.1015 31.9743 13.531C32.0561 12.9606 31.9412 12.3784 31.6497 11.8875L28.8717 6.99744C28.6653 6.62612 28.3685 6.3177 28.011 6.10313C27.6536 5.88856 27.2481 5.77537 26.8353 5.77493C26.5794 5.7729 26.325 5.81419 26.0819 5.89718L23.2215 6.89964C22.7276 6.55881 22.2125 6.25251 21.6794 5.98276L21.0791 2.90204C20.9714 2.3392 20.6766 1.83361 20.2462 1.47378C19.8158 1.11395 19.2773 0.922804 18.7248 0.933799H13.2159C12.6634 0.922804 12.1249 1.11395 11.6945 1.47378C11.2641 1.83361 10.9692 2.3392 10.8616 2.90204L10.2613 5.98276C9.7244 6.25244 9.20533 6.55874 8.70744 6.89964L5.90586 5.84828C5.66019 5.78181 5.40579 5.75704 5.1525 5.77493C4.73965 5.77537 4.33417 5.88856 3.97674 6.10313C3.6193 6.3177 3.32249 6.62612 3.11606 6.99744L0.338033 11.8875C0.0632751 12.3777 -0.0388238 12.9519 0.0492228 13.5117C0.137269 14.0715 0.409983 14.582 0.820657 14.956L3.04544 17.0709V18.9414L0.820657 20.9952C0.398383 21.3717 0.11821 21.8914 0.0298582 22.4621C-0.0584935 23.0328 0.0506902 23.6175 0.338033 24.1126L3.11606 29.0026C3.32249 29.3739 3.6193 29.6823 3.97674 29.8969C4.33417 30.1115 4.73965 30.2247 5.1525 30.2251C5.40835 30.2271 5.66281 30.1858 5.90586 30.1029L8.76629 29.1004C9.26015 29.4412 9.7753 29.7475 10.3083 30.0173L10.9087 33.098C11.0163 33.6608 11.3111 34.1664 11.7415 34.5263C12.172 34.8861 12.7105 35.0772 13.2629 35.0662H18.819C19.3714 35.0772 19.91 34.8861 20.3404 34.5263C20.7708 34.1664 21.0656 33.6608 21.1733 33.098L21.7736 30.0173C22.3104 29.7476 22.8295 29.4413 23.3274 29.1004L26.1761 30.1029C26.4191 30.1858 26.6736 30.2271 26.9294 30.2251C27.3423 30.2247 27.7478 30.1115 28.1052 29.8969C28.4626 29.6823 28.7594 29.3739 28.9659 29.0026L31.6497 24.1126C31.9245 23.6223 32.0266 23.0482 31.9385 22.4884C31.8505 21.9286 31.5778 21.418 31.1671 21.0441L28.9423 18.9291ZM26.8353 27.7801L22.7977 26.362C21.8525 27.1934 20.7723 27.8433 19.6077 28.2813L18.7719 32.6701H13.2159L12.3801 28.3302C11.2246 27.8798 10.1503 27.231 9.20183 26.4109L5.1525 27.7801L2.37447 22.8901L5.57627 19.956C5.35861 18.6906 5.35861 17.395 5.57627 16.1296L2.37447 13.11L5.1525 8.21995L9.19006 9.63806C10.1352 8.80662 11.2154 8.15669 12.3801 7.71872L13.2159 3.32992H18.7719L19.6077 7.66982C20.7631 8.12022 21.8375 8.76903 22.7859 9.58916L26.8353 8.21995L29.6133 13.11L26.4115 16.044C26.6291 17.3095 26.6291 18.605 26.4115 19.8705L29.6133 22.8901L26.8353 27.7801Z" fill="#8C0033"/>
<path d="M15.9998 26.533C14.4176 26.533 12.8709 26.0326 11.5553 25.0949C10.2398 24.1573 9.21444 22.8246 8.60895 21.2654C8.00347 19.7062 7.84504 17.9904 8.15372 16.3352C8.46239 14.6799 9.2243 13.1595 10.3431 11.9661C11.4619 10.7727 12.8873 9.96001 14.4391 9.63076C15.9909 9.30151 17.5994 9.47049 19.0612 10.1163C20.523 10.7622 21.7724 11.8559 22.6514 13.2592C23.5304 14.6624 23.9996 16.3122 23.9996 17.9999C24.0103 19.1237 23.8107 20.2384 23.4124 21.2788C23.0142 22.3193 22.4253 23.2645 21.6803 24.0592C20.9354 24.8538 20.0492 25.4819 19.0738 25.9067C18.0984 26.3315 17.0533 26.5444 15.9998 26.533V26.533ZM15.9998 12.3112C15.2949 12.2937 14.5941 12.4288 13.9396 12.7085C13.2851 12.9882 12.6906 13.4066 12.1921 13.9384C11.6936 14.4701 11.3013 15.1043 11.0391 15.8024C10.7769 16.5005 10.6502 17.2481 10.6666 17.9999C10.6502 18.7518 10.7769 19.4993 11.0391 20.1975C11.3013 20.8956 11.6936 21.5297 12.1921 22.0615C12.6906 22.5932 13.2851 23.0116 13.9396 23.2913C14.5941 23.571 15.2949 23.7062 15.9998 23.6887C16.7047 23.7062 17.4055 23.571 18.06 23.2913C18.7145 23.0116 19.309 22.5932 19.8075 22.0615C20.306 21.5297 20.6983 20.8956 20.9605 20.1975C21.2227 19.4993 21.3494 18.7518 21.333 17.9999C21.3494 17.2481 21.2227 16.5005 20.9605 15.8024C20.6983 15.1043 20.306 14.4701 19.8075 13.9384C19.309 13.4066 18.7145 12.9882 18.06 12.7085C17.4055 12.4288 16.7047 12.2937 15.9998 12.3112Z" fill="#8C0033"/>
</svg>
