<svg width="32" height="32" viewBox="0 0 32 32" fill="none" xmlns="http://www.w3.org/2000/svg">
<path d="M26 20H20C18.9 20 18 19.1 18 18C18 16.9 18.9 16 20 16H26C26 16 32 9.3125 32 6C32 2.6875 29.3125 0 26 0C22.6875 0 20 2.6875 20 6C20 7.59375 21.3875 9.9625 22.8312 12H20C16.6938 12 14 14.6938 14 18C14 21.3062 16.6938 24 20 24H26C27.1 24 28 24.9 28 26C28 27.1 27.1 28 26 28H11.5938C10.5938 29.55 9.48125 30.9813 8.6375 32H26C29.3062 32 32 29.3062 32 26C32 22.6938 29.3062 20 26 20ZM26 4C27.1063 4 28 4.89375 28 6C28 7.10625 27.1063 8 26 8C24.8937 8 24 7.10625 24 6C24 4.89375 24.8937 4 26 4ZM6 16C2.6875 16 0 18.6875 0 22C0 25.3125 6 32 6 32C6 32 12 25.3125 12 22C12 18.6875 9.3125 16 6 16ZM6 24C4.89375 24 4 23.1063 4 22C4 20.8937 4.89375 20 6 20C7.10625 20 8 20.8937 8 22C8 23.1063 7.10625 24 6 24Z" fill="white"/>
</svg>
