<svg width="40" height="54" viewBox="0 0 40 54" fill="none" xmlns="http://www.w3.org/2000/svg">
<path d="M20 6C21.3067 7.46584 22.48 8.82633 23.52 10.0815C24.56 11.3366 25.4933 12.5352 26.32 13.677L36 6.93168V21.0932C36 23.1553 35.5797 25.0932 34.7392 26.9068C33.8987 28.7205 32.7589 30.2981 31.32 31.6397C29.88 32.9814 28.1867 34.0437 26.24 34.8268C24.2933 35.6099 22.2133 36.001 20 36C17.7867 36 15.7067 35.6084 13.76 34.8253C11.8133 34.0422 10.12 32.9804 8.68 31.6397C7.24 30.2981 6.10027 28.7205 5.2608 26.9068C4.42133 25.0932 4.00107 23.1553 4 21.0932V6.93168L13.68 13.677C14.5067 12.559 15.44 11.3665 16.48 10.0994C17.52 8.8323 18.6933 7.46584 20 6ZM7.2 12.8944V21.0932C7.2 22.1863 7.3536 23.2363 7.6608 24.243C7.968 25.2497 8.3872 26.1873 8.9184 27.0559C8.86507 26.8075 8.83147 26.565 8.8176 26.3284C8.80373 26.0919 8.79787 25.8375 8.8 25.5652C8.8 24.1491 9.04693 22.6892 9.5408 21.1856C10.0347 19.682 10.8411 18.0363 11.96 16.2484L7.2 12.8944ZM20 10.6584C17.0667 13.9876 15 16.8944 13.8 19.3789C12.6 21.8634 12 23.9255 12 25.5652C12 27.6273 12.7803 29.3853 14.3408 30.8393C15.9013 32.2932 17.7877 33.0196 20 33.0186C22.2133 33.0186 24.1003 32.2917 25.6608 30.8378C27.2213 29.3839 28.0011 27.6263 28 25.5652C28 23.9255 27.4 21.8509 26.2 19.3416C25 16.8323 22.9333 13.9379 20 10.6584ZM32.8 12.8944L28.04 16.2112C29.16 18 29.9669 19.6462 30.4608 21.1498C30.9547 22.6534 31.2011 24.1252 31.2 25.5652C31.2 25.8385 31.1931 26.0934 31.1792 26.3299C31.1653 26.5665 31.1323 26.8084 31.08 27.0559C31.6133 26.1863 32.0336 25.2482 32.3408 24.2415C32.648 23.2348 32.8011 22.1853 32.8 21.0932V12.8944Z" fill="#E3E3E3" fill-opacity="0.4"/>
<path d="M3.5263 50.75C3.45296 50.75 3.39063 50.728 3.3393 50.684C3.28796 50.6327 3.2623 50.5667 3.2623 50.486V43.325C3.2623 43.2443 3.28796 43.1783 3.3393 43.127C3.39063 43.0757 3.45296 43.05 3.5263 43.05H4.5273C4.60796 43.05 4.6703 43.0757 4.7143 43.127C4.76563 43.1783 4.7913 43.2443 4.7913 43.325V46.163H8.0363V43.325C8.0363 43.2443 8.06196 43.1783 8.1133 43.127C8.16463 43.0757 8.22696 43.05 8.3003 43.05H9.2903C9.37096 43.05 9.43696 43.0757 9.4883 43.127C9.53963 43.1783 9.5653 43.2443 9.5653 43.325V50.486C9.5653 50.5593 9.53963 50.6217 9.4883 50.673C9.43696 50.7243 9.37096 50.75 9.2903 50.75H8.3003C8.22696 50.75 8.16463 50.7243 8.1133 50.673C8.06196 50.6217 8.0363 50.5593 8.0363 50.486V47.538H4.7913V50.486C4.7913 50.5593 4.76563 50.6217 4.7143 50.673C4.6703 50.7243 4.60796 50.75 4.5273 50.75H3.5263ZM13.608 50.86C12.794 50.86 12.1486 50.6253 11.672 50.156C11.1953 49.6867 10.9386 49.0193 10.902 48.154C10.8946 48.0807 10.891 47.989 10.891 47.879C10.891 47.7617 10.8946 47.67 10.902 47.604C10.9313 47.054 11.056 46.5773 11.276 46.174C11.5033 45.7707 11.815 45.4627 12.211 45.25C12.607 45.03 13.0726 44.92 13.608 44.92C14.202 44.92 14.7006 45.0447 15.104 45.294C15.5073 45.536 15.8116 45.877 16.017 46.317C16.2223 46.7497 16.325 47.252 16.325 47.824V48.055C16.325 48.1283 16.2993 48.1907 16.248 48.242C16.1966 48.2933 16.1306 48.319 16.05 48.319H12.398C12.398 48.319 12.398 48.33 12.398 48.352C12.398 48.374 12.398 48.3923 12.398 48.407C12.4053 48.6637 12.453 48.902 12.541 49.122C12.6363 49.3347 12.772 49.507 12.948 49.639C13.1313 49.771 13.3476 49.837 13.597 49.837C13.8023 49.837 13.9746 49.8077 14.114 49.749C14.2533 49.683 14.367 49.6097 14.455 49.529C14.543 49.4483 14.6053 49.3823 14.642 49.331C14.708 49.243 14.7593 49.1917 14.796 49.177C14.84 49.155 14.9023 49.144 14.983 49.144H15.929C16.0023 49.144 16.061 49.166 16.105 49.21C16.1563 49.254 16.1783 49.309 16.171 49.375C16.1636 49.4923 16.1013 49.6353 15.984 49.804C15.874 49.9727 15.7126 50.1377 15.5 50.299C15.2873 50.4603 15.0196 50.596 14.697 50.706C14.3816 50.8087 14.0186 50.86 13.608 50.86ZM12.398 47.395H14.829V47.362C14.829 47.076 14.7813 46.8267 14.686 46.614C14.5906 46.4013 14.4513 46.2327 14.268 46.108C14.0846 45.9833 13.8646 45.921 13.608 45.921C13.3513 45.921 13.1313 45.9833 12.948 46.108C12.7646 46.2327 12.6253 46.4013 12.53 46.614C12.442 46.8267 12.398 47.076 12.398 47.362V47.395ZM19.1536 50.86C18.7723 50.86 18.4276 50.7867 18.1196 50.64C17.8116 50.486 17.5659 50.2843 17.3826 50.035C17.2066 49.7783 17.1186 49.4923 17.1186 49.177C17.1186 48.6637 17.3239 48.2567 17.7346 47.956C18.1526 47.648 18.7026 47.4427 19.3846 47.34L20.8916 47.12V46.889C20.8916 46.581 20.8146 46.3427 20.6606 46.174C20.5066 46.0053 20.2426 45.921 19.8686 45.921C19.6046 45.921 19.3883 45.976 19.2196 46.086C19.0583 46.1887 18.9373 46.328 18.8566 46.504C18.7979 46.5993 18.7136 46.647 18.6036 46.647H17.7346C17.6539 46.647 17.5916 46.625 17.5476 46.581C17.5109 46.537 17.4926 46.4783 17.4926 46.405C17.4999 46.2877 17.5476 46.1447 17.6356 45.976C17.7236 45.8073 17.8629 45.646 18.0536 45.492C18.2443 45.3307 18.4899 45.195 18.7906 45.085C19.0913 44.975 19.4543 44.92 19.8796 44.92C20.3416 44.92 20.7303 44.9787 21.0456 45.096C21.3683 45.206 21.6249 45.3563 21.8156 45.547C22.0063 45.7377 22.1456 45.9613 22.2336 46.218C22.3216 46.4747 22.3656 46.746 22.3656 47.032V50.486C22.3656 50.5593 22.3399 50.6217 22.2886 50.673C22.2373 50.7243 22.1749 50.75 22.1016 50.75H21.2106C21.1299 50.75 21.0639 50.7243 21.0126 50.673C20.9686 50.6217 20.9466 50.5593 20.9466 50.486V50.057C20.8513 50.1963 20.7229 50.3283 20.5616 50.453C20.4003 50.5703 20.2023 50.6693 19.9676 50.75C19.7403 50.8233 19.4689 50.86 19.1536 50.86ZM19.5276 49.815C19.7843 49.815 20.0153 49.76 20.2206 49.65C20.4333 49.54 20.5983 49.3713 20.7156 49.144C20.8403 48.9093 20.9026 48.616 20.9026 48.264V48.033L19.8026 48.209C19.3699 48.275 19.0473 48.3813 18.8346 48.528C18.6219 48.6747 18.5156 48.8543 18.5156 49.067C18.5156 49.2283 18.5633 49.3677 18.6586 49.485C18.7613 49.595 18.8896 49.6793 19.0436 49.738C19.1976 49.7893 19.3589 49.815 19.5276 49.815ZM24.0518 50.75C23.9784 50.75 23.9161 50.7243 23.8648 50.673C23.8134 50.6217 23.7878 50.5593 23.7878 50.486V43.204C23.7878 43.1307 23.8134 43.0683 23.8648 43.017C23.9161 42.9657 23.9784 42.94 24.0518 42.94H24.9648C25.0381 42.94 25.1004 42.9657 25.1518 43.017C25.2031 43.0683 25.2288 43.1307 25.2288 43.204V50.486C25.2288 50.5593 25.2031 50.6217 25.1518 50.673C25.1004 50.7243 25.0381 50.75 24.9648 50.75H24.0518ZM29.2729 50.75C28.8329 50.75 28.4626 50.673 28.1619 50.519C27.8612 50.365 27.6376 50.1377 27.4909 49.837C27.3442 49.529 27.2709 49.1477 27.2709 48.693V46.196H26.4019C26.3286 46.196 26.2662 46.1703 26.2149 46.119C26.1636 46.0677 26.1379 46.0053 26.1379 45.932V45.294C26.1379 45.2207 26.1636 45.1583 26.2149 45.107C26.2662 45.0557 26.3286 45.03 26.4019 45.03H27.2709V43.204C27.2709 43.1307 27.2929 43.0683 27.3369 43.017C27.3882 42.9657 27.4542 42.94 27.5349 42.94H28.4259C28.4992 42.94 28.5616 42.9657 28.6129 43.017C28.6642 43.0683 28.6899 43.1307 28.6899 43.204V45.03H30.0649C30.1382 45.03 30.2006 45.0557 30.2519 45.107C30.3032 45.1583 30.3289 45.2207 30.3289 45.294V45.932C30.3289 46.0053 30.3032 46.0677 30.2519 46.119C30.2006 46.1703 30.1382 46.196 30.0649 46.196H28.6899V48.583C28.6899 48.8837 28.7412 49.1183 28.8439 49.287C28.9539 49.4557 29.1409 49.54 29.4049 49.54H30.1639C30.2372 49.54 30.2996 49.5657 30.3509 49.617C30.4022 49.6683 30.4279 49.7307 30.4279 49.804V50.486C30.4279 50.5593 30.4022 50.6217 30.3509 50.673C30.2996 50.7243 30.2372 50.75 30.1639 50.75H29.2729ZM31.6787 50.75C31.6054 50.75 31.5431 50.7243 31.4917 50.673C31.4404 50.6217 31.4147 50.5593 31.4147 50.486V43.204C31.4147 43.1307 31.4404 43.0683 31.4917 43.017C31.5431 42.9657 31.6054 42.94 31.6787 42.94H32.6577C32.7384 42.94 32.8007 42.9657 32.8447 43.017C32.8961 43.0683 32.9217 43.1307 32.9217 43.204V45.712C33.1197 45.4773 33.3617 45.2867 33.6477 45.14C33.9337 44.9933 34.2857 44.92 34.7037 44.92C35.1511 44.92 35.5397 45.0227 35.8697 45.228C36.2071 45.426 36.4674 45.7083 36.6507 46.075C36.8341 46.4417 36.9257 46.8817 36.9257 47.395V50.486C36.9257 50.5593 36.9001 50.6217 36.8487 50.673C36.7974 50.7243 36.7351 50.75 36.6617 50.75H35.6717C35.5984 50.75 35.5361 50.7243 35.4847 50.673C35.4334 50.6217 35.4077 50.5593 35.4077 50.486V47.461C35.4077 47.0357 35.3014 46.702 35.0887 46.46C34.8834 46.218 34.5827 46.097 34.1867 46.097C33.8054 46.097 33.4974 46.218 33.2627 46.46C33.0354 46.702 32.9217 47.0357 32.9217 47.461V50.486C32.9217 50.5593 32.8961 50.6217 32.8447 50.673C32.8007 50.7243 32.7384 50.75 32.6577 50.75H31.6787Z" fill="#E3E3E3" fill-opacity="0.4"/>
</svg>
