<svg width="32" height="33" viewBox="0 0 32 33" fill="none" xmlns="http://www.w3.org/2000/svg">
<path d="M31.3364 15.8098L17.6978 1.37664L16.7836 0.4087C16.5754 0.189611 16.2937 0.0666504 16.0001 0.0666504C15.7065 0.0666504 15.4248 0.189611 15.2165 0.4087L0.663721 15.8098C0.450287 16.0349 0.281606 16.303 0.167636 16.5982C0.0536655 16.8935 -0.00328479 17.2099 0.000146303 17.5289C0.0142649 18.8444 1.04845 19.8945 2.29089 19.8945H3.79099V32.0667H28.2091V19.8945H29.741C30.3446 19.8945 30.9128 19.6441 31.3399 19.1919C31.5502 18.97 31.7169 18.7061 31.8302 18.4155C31.9434 18.1249 32.0012 17.8134 32 17.499C32 16.8637 31.7635 16.262 31.3364 15.8098V15.8098ZM17.9767 29.3759H14.0235V21.7519H17.9767V29.3759ZM25.6678 17.2037V29.3759H20.2356V20.855C20.2356 20.0291 19.6038 19.3601 18.8238 19.3601H13.1763C12.3963 19.3601 11.7645 20.0291 11.7645 20.855V29.3759H6.33234V17.2037H2.94388L16.0036 3.38726L16.8189 4.25056L29.0598 17.2037H25.6678Z" fill="#8C0033"/>
</svg>
