<svg width="32" height="32" viewBox="0 0 32 32" fill="none" xmlns="http://www.w3.org/2000/svg">
<path d="M23.4146 14.4C25.6916 14.4 27.8753 15.3271 29.4854 16.9775C31.0955 18.6278 32 20.8661 32 23.2C32 25.5339 31.0955 27.7722 29.4854 29.4225C27.8753 31.0729 25.6916 32 23.4146 32C21.1377 32 18.9539 31.0729 17.3439 29.4225C15.7338 27.7722 14.8293 25.5339 14.8293 23.2C14.8293 20.8661 15.7338 18.6278 17.3439 16.9775C18.9539 15.3271 21.1377 14.4 23.4146 14.4ZM3.12195 10.1952V23.6C3.12201 24.303 3.38003 24.9802 3.84476 25.4971C4.30949 26.0141 4.94692 26.333 5.63044 26.3904L5.85366 26.4H13.7584C14.0269 27.2544 14.4016 28.0608 14.8652 28.8016L5.85366 28.8C4.55783 28.8001 3.3111 28.2919 2.3692 27.3797C1.4273 26.4675 0.861656 25.2205 0.788293 23.8944L0.780488 23.6V10.1952C1.53794 10.4701 2.3645 10.4701 3.12195 10.1952ZM19.6574 19.1456L19.5481 19.2384L19.4591 19.3504C19.3692 19.484 19.321 19.6425 19.321 19.8048C19.321 19.9671 19.3692 20.1256 19.4591 20.2592L19.5497 20.3712L22.3126 23.2016L19.5528 26.0272L19.4638 26.1392C19.3739 26.2728 19.3257 26.4313 19.3257 26.5936C19.3257 26.7559 19.3739 26.9144 19.4638 27.048L19.5543 27.16L19.662 27.2512C19.7924 27.3434 19.947 27.3928 20.1054 27.3928C20.2637 27.3928 20.4183 27.3434 20.5487 27.2512L20.658 27.16L23.4146 24.3328L26.1776 27.1632L26.2853 27.256C26.4156 27.3482 26.5702 27.3976 26.7286 27.3976C26.8869 27.3976 27.0416 27.3482 27.1719 27.256L27.2812 27.1632L27.3717 27.0512C27.4617 26.9176 27.5098 26.7591 27.5098 26.5968C27.5098 26.4345 27.4617 26.276 27.3717 26.1424L27.2812 26.0304L24.5182 23.2016L27.2843 20.3696L27.3748 20.2592C27.4651 20.1254 27.5135 19.9667 27.5135 19.804C27.5135 19.6413 27.4651 19.4826 27.3748 19.3488L27.2843 19.2384L27.1766 19.1456C27.0461 19.053 26.8912 19.0035 26.7325 19.0035C26.5738 19.0035 26.4189 19.053 26.2884 19.1456L26.1807 19.2384L23.4162 22.0704L20.6533 19.2384L20.544 19.1456C20.4328 19.067 20.3035 19.0193 20.1689 19.0072C20.0342 18.9952 19.8989 19.0191 19.776 19.0768L19.6574 19.1456ZM16.089 16.0048C15.424 16.7152 14.8558 17.5248 14.4094 18.4048H9.75298C9.45635 18.4047 9.17082 18.2892 8.95408 18.0816C8.73734 17.8741 8.60554 17.5899 8.58533 17.2866C8.56511 16.9833 8.65797 16.6834 8.84516 16.4475C9.03235 16.2117 9.2999 16.0574 9.59376 16.016L9.75298 16.0048H16.089ZM23.8049 1.11603e-08C25.1007 -8.69548e-05 26.3474 0.508087 27.2893 1.42027C28.2312 2.33246 28.7969 3.57951 28.8702 4.9056L28.878 5.2V14.4352C28.1482 13.9562 27.3613 13.5755 26.5366 13.3024V5.2C26.5366 4.4973 26.2788 3.82029 25.8144 3.30337C25.3499 2.78646 24.7129 2.46742 24.0297 2.4096L23.8049 2.4H5.85366C4.91707 2.4 4.08976 2.8832 3.59805 3.6208C2.84196 3.20625 1.96338 3.09176 1.13015 3.2992C1.48541 2.3734 2.09209 1.57136 2.87834 0.988063C3.66458 0.404766 4.59744 0.0646512 5.56644 0.00800019L5.85366 1.11603e-08H23.8049ZM19.9056 10.3936C20.2022 10.3937 20.4877 10.5092 20.7045 10.7168C20.9212 10.9243 21.053 11.2085 21.0732 11.5118C21.0934 11.8151 21.0006 12.115 20.8134 12.3509C20.6262 12.5867 20.3586 12.741 20.0648 12.7824L19.9056 12.7936H9.75298C9.45635 12.7935 9.17082 12.678 8.95408 12.4704C8.73734 12.2629 8.60554 11.9787 8.58533 11.6754C8.56511 11.3721 8.65797 11.0722 8.84516 10.8363C9.03235 10.6005 9.2999 10.4462 9.59376 10.4048L9.75298 10.3936H19.9056ZM1.95122 4.8C2.46871 4.8 2.96502 5.01071 3.33094 5.38579C3.69686 5.76086 3.90244 6.26957 3.90244 6.8C3.90244 7.33043 3.69686 7.83914 3.33094 8.21421C2.96502 8.58929 2.46871 8.8 1.95122 8.8C1.43372 8.8 0.937424 8.58929 0.571499 8.21421C0.205574 7.83914 0 7.33043 0 6.8C0 6.26957 0.205574 5.76086 0.571499 5.38579C0.937424 5.01071 1.43372 4.8 1.95122 4.8Z" fill="#8C0033"/>
</svg>
