<svg width="52" height="50" viewBox="0 0 52 50" fill="none" xmlns="http://www.w3.org/2000/svg">
<path d="M26 0C28.1233 2.44306 30.03 4.71056 31.72 6.80248C33.41 8.89441 34.9267 10.8919 36.27 12.795L52 1.55279V25.1553C52 28.5921 51.3171 31.8219 49.9512 34.8447C48.5853 37.8675 46.7333 40.4969 44.395 42.7329C42.055 44.9689 39.3033 46.7395 36.14 48.0447C32.9767 49.3499 29.5967 50.0017 26 50C22.4033 50 19.0233 49.3474 15.86 48.0422C12.6967 46.7371 9.945 44.9673 7.605 42.7329C5.265 40.4969 3.41293 37.8675 2.0488 34.8447C0.684667 31.8219 0.00173333 28.5921 0 25.1553V1.55279L15.73 12.795C17.0733 10.9317 18.59 8.9441 20.28 6.8323C21.97 4.7205 23.8767 2.44306 26 0ZM5.2 11.4907V25.1553C5.2 26.9772 5.4496 28.7271 5.9488 30.405C6.448 32.0828 7.1292 33.6455 7.9924 35.0932C7.90573 34.6791 7.85113 34.2749 7.8286 33.8807C7.80607 33.4865 7.79653 33.0625 7.8 32.6087C7.8 30.2484 8.20127 27.8153 9.0038 25.3093C9.80633 22.8033 11.1167 20.0605 12.935 17.0807L5.2 11.4907ZM26 7.76398C21.2333 13.3126 17.875 18.1574 15.925 22.2981C13.975 26.4389 13 29.8758 13 32.6087C13 36.0455 14.2679 38.9756 16.8038 41.3988C19.3397 43.8219 22.4051 45.0327 26 45.0311C29.5967 45.0311 32.6629 43.8195 35.1988 41.3963C37.7347 38.9731 39.0017 36.0439 39 32.6087C39 29.8758 38.025 26.4182 36.075 22.236C34.125 18.0538 30.7667 13.2298 26 7.76398ZM46.8 11.4907L39.065 17.0186C40.885 20 42.1963 22.7437 42.9988 25.2497C43.8013 27.7557 44.2017 30.2087 44.2 32.6087C44.2 33.0642 44.1887 33.489 44.1662 33.8832C44.1437 34.2774 44.0899 34.6807 44.005 35.0932C44.8717 33.6439 45.5546 32.0803 46.0538 30.4025C46.553 28.7246 46.8017 26.9756 46.8 25.1553V11.4907Z" fill="white"/>
</svg>
