<svg width="93" height="92" viewBox="0 0 93 92" fill="none" xmlns="http://www.w3.org/2000/svg">
<circle cx="46.5" cy="46.5" r="45.75" fill="white" stroke="#8C0033" stroke-width="0.5"/>
<path d="M35.07 68.8179C52.0406 81.3052 45.7489 77.954 29.0725 69.0716L28.596 68.8179C26.068 67.4714 23.7944 65.8057 21.7872 63.9023C23.4779 62.9188 25.0119 61.9926 26.4084 61.1029C28.7547 63.7089 31.6339 66.2895 35.07 68.8179Z" fill="#E3E3E3" fill-opacity="0.4"/>
<path d="M21.5633 54.4144C20.5052 56.1236 19.2486 57.8294 17.8724 59.4552C9.75433 48.4021 8.55237 32.8473 15.7477 23.1082C25.0011 10.5834 40.1022 22.0509 41.3604 23.0413C41.4232 23.0907 41.4658 23.1292 41.5238 23.1864C42.5468 24.1951 53.0377 34.5612 47.9184 30.4123C42.54 26.0534 29.7912 18.5137 22.2217 30.4123C17.4617 37.8945 16.9946 46.1686 21.5633 54.4144Z" fill="#E3E3E3" fill-opacity="0.4"/>
<path d="M23.4585 43.3676C27.8629 48.7899 20.4654 60.3223 12.406 67.2076C12.2808 67.3145 12.4121 67.5685 12.5525 67.4924C31.0851 57.4464 37.4597 53.4309 41.3951 44.9934C41.4492 44.8774 41.362 44.74 41.2549 44.7787C39.7578 45.3198 32.8137 47.8009 30.3698 48.1678C27.6241 48.58 18.8162 37.6525 23.4585 43.3676Z" fill="#E3E3E3" fill-opacity="0.4"/>
<path d="M34.542 42.4815C34.542 44.6906 33.0283 46.4815 31.161 46.4815C29.2937 46.4815 27.78 44.6906 27.78 42.4815C27.78 40.2723 29.2937 38.4815 31.161 38.4815C33.0283 38.4815 34.542 40.2723 34.542 42.4815Z" fill="#E3E3E3" fill-opacity="0.4"/>
<path d="M54.4462 53.8493C57.4549 57.5534 52.5864 65.3357 47.1056 70.1809C46.982 70.2902 47.1158 70.5564 47.2561 70.4803C59.8099 63.6661 64.2182 60.8493 66.942 55.081C66.9966 54.9653 66.9069 54.8293 66.7998 54.8679C65.5927 55.303 60.9427 56.9555 59.2783 57.2053C57.3586 57.4935 51.2006 49.8536 54.4462 53.8493Z" fill="#E3E3E3" fill-opacity="0.4"/>
<path d="M61.5903 53.5926C61.5903 54.9017 60.6933 55.963 59.5868 55.963C58.4802 55.963 57.5832 54.9017 57.5832 53.5926C57.5832 52.2835 58.4802 51.2222 59.5868 51.2222C60.6933 51.2222 61.5903 52.2835 61.5903 53.5926Z" fill="#E3E3E3" fill-opacity="0.4"/>
<path d="M46.8377 28.0949C53.0371 23.9836 63.3029 19.9372 69.7784 30.116C77.3479 42.0147 74.0612 55.9161 56.93 68.5216C39.9594 81.0089 46.2511 77.6577 62.9276 68.7753L63.404 68.5216C80.4356 59.4504 85.9135 35.8887 76.2523 22.8119C66.6217 9.77647 50.6569 22.7295 50.556 22.8115L50.555 22.8125C50.5132 22.8536 48.1857 25.1446 46.0724 27.3059C46.3333 27.5733 46.59 27.8378 46.8377 28.0949Z" fill="#E3E3E3" fill-opacity="0.4"/>
<path d="M44.9004 28.5155C42.8334 30.6727 41.5525 32.1657 44.0816 30.116C44.5316 29.7513 45.0333 29.3642 45.5792 28.9682C45.3586 28.8174 45.1322 28.6663 44.9004 28.5155Z" fill="#E3E3E3" fill-opacity="0.4"/>
</svg>
