<svg width="68" height="68" viewBox="0 0 68 68" fill="none" xmlns="http://www.w3.org/2000/svg">
<circle cx="34" cy="34" r="34" fill="white"/>
<path fill-rule="evenodd" clip-rule="evenodd" d="M28.021 43.0285C28.2144 42.9773 28.4177 42.9767 28.6114 43.0268C28.805 43.0768 28.9826 43.1759 29.127 43.3143L32.9175 46.9497C33.0717 47.0979 33.1822 47.2856 33.237 47.4924C33.2917 47.6992 33.2885 47.9171 33.2278 48.1222L32.4006 50.9152C32.1943 51.6125 31.776 52.2282 31.2036 52.6768L25.7868 56.9188C25.4255 57.2075 25.0106 57.4216 24.566 57.549C24.1215 57.6763 23.6561 57.7143 23.1968 57.6608C22.7375 57.6072 22.2933 57.4631 21.89 57.2369C21.4867 57.0107 21.1322 56.7068 20.847 56.3428C20.5618 55.9787 20.3516 55.5618 20.2285 55.116C20.1054 54.6703 20.0719 54.2046 20.1298 53.7458C20.1877 53.287 20.336 52.8442 20.5661 52.4431C20.7961 52.0419 21.1034 51.6904 21.4701 51.4087L26.0073 47.855L27.2008 43.8242C27.2578 43.6323 27.3632 43.4584 27.5068 43.319C27.6504 43.1797 27.8275 43.0796 28.021 43.0285V43.0285ZM28.8936 46.3232L28.1376 48.8747C28.0688 49.107 27.9293 49.3121 27.7386 49.4615L22.9086 53.2462C22.6733 53.4396 22.523 53.7175 22.4899 54.0203C22.4567 54.3232 22.5433 54.627 22.7312 54.8668C22.919 55.1066 23.1933 55.2634 23.4952 55.3037C23.7972 55.344 24.1029 55.2646 24.3471 55.0825L29.764 50.8393C29.9551 50.6901 30.095 50.4849 30.1641 50.2525L30.7895 48.1408L28.8948 46.3232H28.8936ZM39.018 20.3333C39.9462 20.3333 40.8365 19.9646 41.4928 19.3082C42.1492 18.6518 42.518 17.7616 42.518 16.8333C42.518 15.9051 42.1492 15.0148 41.4928 14.3585C40.8365 13.7021 39.9462 13.3333 39.018 13.3333C38.0897 13.3333 37.1995 13.7021 36.5431 14.3585C35.8867 15.0148 35.518 15.9051 35.518 16.8333C35.518 17.7616 35.8867 18.6518 36.5431 19.3082C37.1995 19.9646 38.0897 20.3333 39.018 20.3333V20.3333ZM39.018 22.6667C40.5651 22.6667 42.0488 22.0521 43.1428 20.9581C44.2367 19.8642 44.8513 18.3804 44.8513 16.8333C44.8513 15.2862 44.2367 13.8025 43.1428 12.7085C42.0488 11.6146 40.5651 11 39.018 11C37.4709 11 35.9871 11.6146 34.8932 12.7085C33.7992 13.8025 33.1846 15.2862 33.1846 16.8333C33.1846 18.3804 33.7992 19.8642 34.8932 20.9581C35.9871 22.0521 37.4709 22.6667 39.018 22.6667V22.6667Z" fill="#58BE34"/>
<path fill-rule="evenodd" clip-rule="evenodd" d="M31.7111 23.0913C33.3771 22.4729 35.1668 22.5079 36.7733 23.3398C38.3016 24.1296 39.3365 25.4666 39.9875 26.8643C40.2325 27.3881 40.4565 27.8758 40.6676 28.3331C41.181 29.4461 41.601 30.3596 42.0035 31.1564C42.5705 32.2846 42.9858 32.9461 43.3521 33.3731C43.6671 33.7383 43.9366 33.9238 44.2843 34.0591C44.6926 34.2201 45.3611 34.3659 46.55 34.4021C47.4061 34.4392 48.2132 34.812 48.7966 35.4397C49.3799 36.0674 49.6926 36.8996 49.667 37.7561C49.6414 38.6127 49.2795 39.4247 48.6597 40.0165C48.0399 40.6082 47.212 40.9321 46.3551 40.9179C44.772 40.8713 43.2821 40.6683 41.9113 40.1328C40.4786 39.5728 39.3481 38.7176 38.4055 37.6186C38.2935 37.4882 38.1846 37.3552 38.0788 37.2196L37.6086 39.6743L42.7035 44.7014C43.029 45.0211 43.2821 45.4061 43.449 45.8308L46.347 53.2158C46.5033 53.6143 46.5797 54.0397 46.5716 54.4677C46.5636 54.8957 46.4713 55.3179 46.3001 55.7102C46.1288 56.1025 45.882 56.4573 45.5737 56.7543C45.2654 57.0512 44.9016 57.2845 44.5031 57.4409C44.1046 57.5972 43.6792 57.6735 43.2512 57.6655C42.8232 57.6574 42.401 57.5652 42.0086 57.394C41.6163 57.2227 41.2615 56.9759 40.9646 56.6676C40.6676 56.3592 40.4343 55.9954 40.278 55.597L37.632 48.8571L28.4631 39.8096C28.1117 39.4629 27.8437 39.0409 27.6791 38.5755C27.5146 38.11 27.458 37.6133 27.5135 37.1228L27.8926 33.7744C26.852 35.1196 25.977 36.7378 25.3656 38.6511C25.1028 39.4748 24.5235 40.1603 23.7552 40.5569C22.9869 40.9534 22.0926 41.0285 21.2689 40.7657C20.4452 40.5028 19.7597 39.9236 19.3631 39.1553C18.9666 38.387 18.8915 37.4926 19.1543 36.6689C21.217 30.2079 25.8825 25.3418 31.6726 23.1064L31.6796 23.1029L31.7111 23.0913V23.0913ZM32.5278 25.2776L32.5091 25.2846C27.3956 27.2598 23.2295 31.5741 21.378 37.3783C21.341 37.4942 21.3272 37.6162 21.3373 37.7375C21.3475 37.8587 21.3815 37.9768 21.4373 38.0849C21.493 38.193 21.5696 38.2891 21.6625 38.3676C21.7554 38.4461 21.8629 38.5056 21.9788 38.5426C22.0947 38.5796 22.2168 38.5934 22.338 38.5833C22.4592 38.5731 22.5773 38.5391 22.6854 38.4833C22.7935 38.4275 22.8896 38.351 22.9681 38.2581C23.0467 38.1652 23.1061 38.0577 23.1431 37.9418C24.3028 34.3099 26.3223 31.5624 28.6965 29.6234C28.8761 29.4769 29.0952 29.3872 29.326 29.3657C29.5568 29.3443 29.7887 29.392 29.9923 29.5029C30.1958 29.6138 30.3617 29.7828 30.4687 29.9884C30.5758 30.194 30.6192 30.4268 30.5935 30.6571L29.8328 37.3853C29.8171 37.5246 29.8332 37.6656 29.8798 37.7978C29.9265 37.9299 30.0026 38.0498 30.1023 38.1483L39.4473 47.3696C39.564 47.4839 39.655 47.6216 39.7145 47.7733L42.4503 54.7453C42.4931 54.8607 42.5586 54.9664 42.6427 55.0562C42.7269 55.146 42.8281 55.2182 42.9404 55.2684C43.0528 55.3187 43.174 55.3461 43.2971 55.349C43.4201 55.3518 43.5425 55.3301 43.6571 55.2852C43.7717 55.2402 43.8762 55.1729 43.9644 55.0871C44.0527 55.0013 44.123 54.8988 44.1711 54.7855C44.2193 54.6722 44.2444 54.5505 44.245 54.4274C44.2456 54.3043 44.2217 54.1823 44.1746 54.0686L41.2766 46.6836C41.2296 46.5627 41.1576 46.453 41.0655 46.3616L35.5261 40.8969C35.3896 40.7623 35.2883 40.596 35.2313 40.4128C35.1744 40.2297 35.1634 40.0353 35.1995 39.8469L36.344 33.8678C36.3893 33.63 36.5075 33.4121 36.6822 33.2445C36.8569 33.0769 37.0794 32.9677 37.3189 32.9322C37.5584 32.8967 37.803 32.9366 38.0188 33.0463C38.2346 33.156 38.4109 33.3302 38.5233 33.5446C39.0483 34.5444 39.5733 35.3996 40.1753 36.0996C40.894 36.9361 41.7165 37.5509 42.7606 37.9593C43.7873 38.3606 44.9831 38.5426 46.424 38.5858C46.5469 38.5918 46.6698 38.5732 46.7855 38.5312C46.9012 38.4892 47.0074 38.4245 47.0978 38.3409C47.1882 38.2574 47.2611 38.1567 47.3121 38.0447C47.3632 37.9327 47.3914 37.8116 47.3951 37.6886C47.3988 37.5655 47.378 37.443 47.3338 37.3281C47.2896 37.2132 47.223 37.1082 47.1378 37.0194C47.0526 36.9305 46.9505 36.8596 46.8376 36.8106C46.7246 36.7617 46.6031 36.7357 46.48 36.7343C45.15 36.6946 44.1886 36.5278 43.435 36.2326C42.7 35.9456 42.1213 35.5209 41.5823 34.8921C41.027 34.2469 40.5113 33.3824 39.9198 32.2064C39.449 31.2535 38.9939 30.2928 38.5548 29.3248L38.549 29.3108C38.339 28.8534 38.115 28.3681 37.8723 27.8489C37.3706 26.7733 36.6473 25.9006 35.7023 25.4118C34.7363 24.9124 33.6373 24.8658 32.5266 25.2776H32.5278Z" fill="#58BE34"/>
</svg>
