<svg width="20" height="26" viewBox="0 0 20 26" fill="none" xmlns="http://www.w3.org/2000/svg">
<path d="M4.53125 14.5H11.7812V16.3125H4.53125V14.5ZM4.53125 9.96875H15.4062V11.7812H4.53125V9.96875ZM4.53125 19.0312H9.0625V20.8438H4.53125V19.0312Z" fill="#8C0033"/>
<path d="M18.125 2.71875H15.4062V1.8125C15.4062 1.3318 15.2153 0.870779 14.8754 0.530869C14.5355 0.190959 14.0745 0 13.5938 0H6.34375C5.86305 0 5.40203 0.190959 5.06212 0.530869C4.72221 0.870779 4.53125 1.3318 4.53125 1.8125V2.71875H1.8125C1.3318 2.71875 0.870779 2.90971 0.530869 3.24962C0.190959 3.58953 0 4.05055 0 4.53125V23.5625C0 24.0432 0.190959 24.5042 0.530869 24.8441C0.870779 25.184 1.3318 25.375 1.8125 25.375H18.125C18.6057 25.375 19.0667 25.184 19.4066 24.8441C19.7465 24.5042 19.9375 24.0432 19.9375 23.5625V4.53125C19.9375 4.05055 19.7465 3.58953 19.4066 3.24962C19.0667 2.90971 18.6057 2.71875 18.125 2.71875V2.71875ZM6.34375 1.8125H13.5938V5.4375H6.34375V1.8125ZM18.125 23.5625H1.8125V4.53125H4.53125V7.25H15.4062V4.53125H18.125V23.5625Z" fill="#8C0033"/>
</svg>
