<svg width="21" height="27" viewBox="0 0 21 27" fill="none" xmlns="http://www.w3.org/2000/svg">
<path d="M5.0625 15.3125H12.3125V17.125H5.0625V15.3125ZM5.0625 10.7812H15.9375V12.5938H5.0625V10.7812ZM5.0625 19.8438H9.59375V21.6562H5.0625V19.8438Z" fill="white"/>
<path d="M18.6562 3.53125H15.9375V2.625C15.9375 2.1443 15.7465 1.68328 15.4066 1.34337C15.0667 1.00346 14.6057 0.8125 14.125 0.8125H6.875C6.3943 0.8125 5.93328 1.00346 5.59337 1.34337C5.25346 1.68328 5.0625 2.1443 5.0625 2.625V3.53125H2.34375C1.86305 3.53125 1.40203 3.72221 1.06212 4.06212C0.722209 4.40203 0.53125 4.86305 0.53125 5.34375V24.375C0.53125 24.8557 0.722209 25.3167 1.06212 25.6566C1.40203 25.9965 1.86305 26.1875 2.34375 26.1875H18.6562C19.137 26.1875 19.598 25.9965 19.9379 25.6566C20.2778 25.3167 20.4688 24.8557 20.4688 24.375V5.34375C20.4688 4.86305 20.2778 4.40203 19.9379 4.06212C19.598 3.72221 19.137 3.53125 18.6562 3.53125ZM6.875 2.625H14.125V6.25H6.875V2.625ZM18.6562 24.375H2.34375V5.34375H5.0625V8.0625H15.9375V5.34375H18.6562V24.375Z" fill="white"/>
</svg>
