<?xml version="1.0" encoding="utf-8"?>
<!-- Generator: Adobe Illustrator 24.2.3, SVG Export Plug-In . SVG Version: 6.00 Build 0)  -->
<svg version="1.1" id="Layer_1" xmlns="http://www.w3.org/2000/svg" xmlns:xlink="http://www.w3.org/1999/xlink" x="0px" y="0px"
	 viewBox="0 0 20 15" style="enable-background:new 0 0 20 15;" xml:space="preserve">
<style type="text/css">
	.st0{fill:#FFFFFF;}
</style>
<path class="st0" d="M3.8,7.4l4.9,4.4c0.1,0.1,0.2,0.1,0.3,0.1c0.1,0,0.3-0.1,0.4-0.2l7-7.8c0.1-0.1,0.8-0.9,0.8-1
	c0-0.3-0.9-0.5-1.2-0.5c-0.1,0-0.3,0.1-0.4,0.2L9,9.3L5.1,5.9C5,5.8,4.9,5.8,4.8,5.8C4.5,5.8,3.6,6.7,3.6,7C3.6,7.1,3.7,7.3,3.8,7.4
	z"/>
</svg>
