<svg width="68" height="68" viewBox="0 0 68 68" fill="none" xmlns="http://www.w3.org/2000/svg">
<circle cx="34" cy="34" r="34" fill="white"/>
<path d="M34 13.0003C31.4763 12.9629 31.4763 16.7709 34 16.7336H39.6V21.46L29.1355 30.1736L25.4992 20.4669H26.5333C29.0571 20.5043 29.0571 16.6963 26.5333 16.7336H19.0667C16.5429 16.6963 16.5429 20.5043 19.0667 20.4669H21.5008L24.8272 29.3336C23.042 28.4254 21.0696 27.946 19.0667 27.9336C11.8725 27.9336 6 33.8061 6 41.0003C6 48.1944 11.8725 54.0669 19.0667 54.0669C26.2608 54.0669 32.1333 48.1944 32.1333 41.0003C32.1333 38.4989 31.3867 36.1805 30.1547 34.1907L40.6864 25.4173L42.4149 29.748C38.5173 32.0179 35.8667 36.188 35.8667 41.0003C35.8667 48.1944 41.7392 54.0669 48.9333 54.0669C56.1275 54.0669 62 48.1944 62 41.0003C62 33.8061 56.1275 27.9336 48.9333 27.9336C47.8768 27.9336 46.8651 28.0941 45.8795 28.3331L43.3333 21.9677V14.8669C43.3333 14.3719 43.1367 13.8971 42.7866 13.547C42.4365 13.1969 41.9617 13.0003 41.4667 13.0003H34ZM19.0667 31.6669C21.1807 31.6722 23.2293 32.4007 24.872 33.7315L17.872 39.5629C15.9643 41.1571 18.3499 44.0243 20.2613 42.4376L27.2613 36.6024C27.9632 37.9165 28.4 39.4024 28.4 41.0003C28.4 46.1784 24.2448 50.3336 19.0667 50.3336C13.8885 50.3336 9.73333 46.1784 9.73333 41.0003C9.73333 35.8221 13.8885 31.6669 19.0667 31.6669ZM48.9333 31.6669C54.1115 31.6669 58.2667 35.8221 58.2667 41.0003C58.2667 46.1784 54.1115 50.3336 48.9333 50.3336C43.7552 50.3336 39.6 46.1784 39.6 41.0003C39.5966 39.4542 39.9789 37.9316 40.7122 36.5705C41.4456 35.2094 42.5069 34.0526 43.8 33.2051L47.1973 41.6947C48.1157 44.0205 51.6027 42.628 50.6693 40.3059L47.2795 31.8312C47.8133 31.7416 48.3659 31.6669 48.9333 31.6669Z" fill="#00AEE6"/>
</svg>
