<svg width="93" height="92" viewBox="0 0 93 92" fill="none" xmlns="http://www.w3.org/2000/svg">
<circle cx="46.5" cy="46.5" r="45.75" fill="white" stroke="#8C0033" stroke-width="0.5"/>
<path d="M35.0701 68.8179C52.0407 81.3052 45.7489 77.954 29.0725 69.0717L28.5961 68.8179C26.068 67.4714 23.7944 65.8056 21.7872 63.9023C23.4779 62.9188 25.0119 61.9925 26.4084 61.1028C28.7547 63.7089 31.6339 66.2895 35.0701 68.8179Z" fill="url(#paint0_linear_163_1890)"/>
<path d="M21.5633 54.4143C20.5052 56.1236 19.2486 57.8293 17.8724 59.4552C9.75433 48.402 8.55237 32.8473 15.7477 23.1082C24.911 10.7054 39.8087 21.8299 41.3198 23.0094C41.4099 23.0797 41.4839 23.147 41.5668 23.2287C42.8076 24.4529 52.9735 34.5092 47.9185 30.4123C42.5401 26.0534 29.7913 18.5137 22.2217 30.4123C17.4617 37.8945 16.9946 46.1685 21.5633 54.4143Z" fill="url(#paint1_linear_163_1890)"/>
<path d="M23.4583 43.3676C27.7617 48.6655 20.7985 59.7962 12.9595 66.7263C12.7826 66.8827 12.9741 67.2636 13.1748 67.1547C31.1301 57.4086 37.4353 53.3797 41.3312 45.1294C41.4093 44.9639 41.2809 44.7693 41.1277 44.8246C39.401 45.4469 32.7503 47.8104 30.3697 48.1677C27.624 48.5799 18.8161 37.6525 23.4583 43.3676Z" fill="#428699"/>
<path d="M34.5419 42.4815C34.5419 44.6906 33.0282 46.4815 31.1609 46.4815C29.2936 46.4815 27.7798 44.6906 27.7798 42.4815C27.7798 40.2723 29.2936 38.4815 31.1609 38.4815C33.0282 38.4815 34.5419 40.2723 34.5419 42.4815Z" fill="url(#paint2_radial_163_1890)"/>
<path d="M54.4461 53.8493C57.3546 57.4299 52.902 64.8216 47.6511 69.687C47.4772 69.8481 47.6822 70.2489 47.8828 70.1397C59.8614 63.6229 64.1949 60.7974 66.8777 55.216C66.9568 55.0513 66.8263 54.8584 66.6731 54.9135C65.2971 55.4076 60.8892 56.9635 59.2782 57.2053C57.3586 57.4935 51.2005 49.8535 54.4461 53.8493Z" fill="#C60132"/>
<path d="M61.5903 53.5926C61.5903 54.9017 60.6933 55.9629 59.5867 55.9629C58.4802 55.9629 57.5831 54.9017 57.5831 53.5926C57.5831 52.2835 58.4802 51.2222 59.5867 51.2222C60.6933 51.2222 61.5903 52.2835 61.5903 53.5926Z" fill="#C60132"/>
<path d="M46.8378 28.0948C53.0372 23.9836 63.3029 19.9372 69.7783 30.116C77.3479 42.0147 74.0612 55.9161 56.9299 68.5216C39.9593 81.0088 46.2511 77.6577 62.9275 68.7753L63.4039 68.5216C80.4356 59.4503 85.9135 35.8887 76.2523 22.8119C66.6348 9.79428 50.7004 22.6941 50.5565 22.8111L50.5554 22.8119C50.5563 22.811 50.5553 22.8118 50.555 22.8122C50.555 22.8122 50.5547 22.8125 50.5554 22.8119L50.5543 22.813C50.4949 22.8716 48.1774 25.153 46.0724 27.3058C46.3333 27.5732 46.59 27.8377 46.8378 28.0948Z" fill="url(#paint3_linear_163_1890)"/>
<path d="M44.9004 28.5154C42.8334 30.6726 41.5523 32.1658 44.0815 30.116C44.5316 29.7512 45.0333 29.3642 45.5793 28.9681C45.3586 28.8173 45.1322 28.6662 44.9004 28.5154Z" fill="url(#paint4_linear_163_1890)"/>
<defs>
<linearGradient id="paint0_linear_163_1890" x1="46" y1="17" x2="46" y2="77" gradientUnits="userSpaceOnUse">
<stop stop-color="#8C0033"/>
<stop offset="1" stop-color="#475CA6"/>
</linearGradient>
<linearGradient id="paint1_linear_163_1890" x1="46" y1="17" x2="46" y2="77" gradientUnits="userSpaceOnUse">
<stop stop-color="#8C0033"/>
<stop offset="1" stop-color="#475CA6"/>
</linearGradient>
<radialGradient id="paint2_radial_163_1890" cx="0" cy="0" r="1" gradientUnits="userSpaceOnUse" gradientTransform="translate(46 47) rotate(90) scale(30 35)">
<stop offset="0.9999" stop-color="#428699"/>
<stop offset="1" stop-color="#D9D9D9" stop-opacity="0"/>
</radialGradient>
<linearGradient id="paint3_linear_163_1890" x1="46" y1="17" x2="46" y2="77" gradientUnits="userSpaceOnUse">
<stop stop-color="#8C0033"/>
<stop offset="1" stop-color="#475CA6"/>
</linearGradient>
<linearGradient id="paint4_linear_163_1890" x1="46" y1="17" x2="46" y2="77" gradientUnits="userSpaceOnUse">
<stop stop-color="#8C0033"/>
<stop offset="1" stop-color="#475CA6"/>
</linearGradient>
</defs>
</svg>
