<svg width="68" height="68" viewBox="0 0 68 68" fill="none" xmlns="http://www.w3.org/2000/svg">
<circle cx="34" cy="34" r="34" fill="white"/>
<path fill-rule="evenodd" clip-rule="evenodd" d="M30.2181 25.358C30.3584 25.3644 30.4951 25.3832 30.6257 25.4145L31.9331 25.8071L28.6013 33.6586C27.4789 36.3072 28.4848 39.4095 30.9405 40.8739L38.4988 45.3814L36.0556 53.2634C35.586 54.7782 36.4212 56.3909 37.9207 56.8652C38.2044 56.9551 38.4908 56.9982 38.7728 56.9982C39.9833 56.9982 41.1057 56.2103 41.4873 54.9812L44.3014 45.9016C44.8271 44.0355 44.0444 42.0311 42.3767 41.015L36.9299 37.768L39.7147 30.7351L41.5175 34.4573C42.2291 35.9253 43.734 36.8732 45.3518 36.8732H50.1538C51.7255 36.8732 53 35.5857 53 33.9982C53 32.4107 51.7255 31.1241 50.1538 31.1241H46.2377L43.9199 26.3399C42.8081 24.0444 40.7669 22.3661 38.425 21.7633L32.103 19.864C29.5859 19.253 26.9648 19.8146 24.9129 21.4039L21.3846 24.1361C20.1367 25.1019 19.9001 26.9059 20.858 28.1664C21.8159 29.427 23.601 29.6632 24.848 28.6983L28.3781 25.9662C28.9324 25.5362 29.61 25.3305 30.2181 25.358ZM23.7829 27.2938L27.3113 24.563C27.3117 24.5627 27.312 24.5625 27.3123 24.5622C28.3698 23.7424 29.7713 23.391 31.0305 23.6932L31.078 23.7046L34.3181 24.6776L30.2115 34.3549C29.4355 36.186 30.1334 38.3381 31.831 39.3504L40.5853 44.5712L37.7271 53.7921C37.5466 54.3742 37.8676 54.9945 38.4442 55.1769C38.5585 55.2131 38.6687 55.229 38.7728 55.229C39.2383 55.229 39.6696 54.9236 39.8161 54.4518L42.6222 45.398C42.9182 44.3143 42.4651 43.1389 41.4784 42.5338L34.7457 38.5203L39.5538 26.3772L43.0906 33.6793C43.0907 33.6795 43.0905 33.6792 43.0906 33.6793C43.5081 34.5402 44.4026 35.104 45.3518 35.104H50.1538C50.7581 35.104 51.2485 34.6086 51.2485 33.9982C51.2485 33.3885 50.7589 32.8933 50.1538 32.8933H45.1449L42.3467 27.1176C41.4549 25.2762 39.8237 23.9491 37.9925 23.4777L37.9589 23.4691L31.6509 21.574C29.6602 21.1043 27.5992 21.5527 25.9787 22.8079L22.4501 25.5402C21.9701 25.9118 21.8793 26.6048 22.2474 27.0891C22.6161 27.5743 23.3025 27.6654 23.7829 27.2938C23.7829 27.2938 23.7828 27.2939 23.7829 27.2938ZM24.7955 42.6241L26.1119 39.5227C26.4101 40.1777 26.7849 40.7989 27.2346 41.3674C27.8483 42.1431 28.6017 42.8205 29.4908 43.3509L30.4398 43.917L29.658 45.7605C28.9882 47.3463 27.4469 48.3741 25.7347 48.3741H18.8462C17.2745 48.3741 16 47.0866 16 45.4991C16 43.9116 17.2745 42.6241 18.8462 42.6241H24.7955ZM28.2275 44.6407C27.5745 44.211 26.9886 43.715 26.4701 43.1686L25.9502 44.3933H18.8462C18.2419 44.3933 17.7515 44.8887 17.7515 45.4991C17.7515 46.1095 18.2419 46.6049 18.8462 46.6049H25.7347C26.747 46.6049 27.6533 45.9984 28.047 45.0663L28.048 45.0639L28.2275 44.6407ZM40.1923 17.8558C41.5829 17.8558 42.7101 16.7171 42.7101 15.3125C42.7101 13.9079 41.5829 12.7692 40.1923 12.7692C38.8018 12.7692 37.6746 13.9079 37.6746 15.3125C37.6746 16.7171 38.8018 17.8558 40.1923 17.8558ZM44.4615 15.3125C44.4615 17.6943 42.5502 19.625 40.1923 19.625C37.8344 19.625 35.9231 17.6943 35.9231 15.3125C35.9231 12.9307 37.8344 11 40.1923 11C42.5502 11 44.4615 12.9307 44.4615 15.3125Z" fill="#003087"/>
</svg>
