<svg width="68" height="68" viewBox="0 0 68 68" fill="none" xmlns="http://www.w3.org/2000/svg">
<circle cx="34" cy="34" r="34" fill="white"/>
<path d="M28.1667 39.125C28.1667 38.32 28.82 37.6667 29.625 37.6667H38.375C38.7618 37.6667 39.1327 37.8203 39.4062 38.0938C39.6797 38.3673 39.8333 38.7382 39.8333 39.125C39.8333 39.5118 39.6797 39.8827 39.4062 40.1562C39.1327 40.4297 38.7618 40.5833 38.375 40.5833H29.625C28.82 40.5833 28.1667 39.93 28.1667 39.125ZM24.6667 35.3333C24.6667 35.9522 24.4208 36.5457 23.9832 36.9833C23.5457 37.4208 22.9522 37.6667 22.3333 37.6667C21.7145 37.6667 21.121 37.4208 20.6834 36.9833C20.2458 36.5457 20 35.9522 20 35.3333C20 34.7145 20.2458 34.121 20.6834 33.6834C21.121 33.2458 21.7145 33 22.3333 33C22.9522 33 23.5457 33.2458 23.9832 33.6834C24.4208 34.121 24.6667 34.7145 24.6667 35.3333V35.3333ZM45.6667 37.6667C46.2855 37.6667 46.879 37.4208 47.3166 36.9833C47.7542 36.5457 48 35.9522 48 35.3333C48 34.7145 47.7542 34.121 47.3166 33.6834C46.879 33.2458 46.2855 33 45.6667 33C45.0478 33 44.4543 33.2458 44.0168 33.6834C43.5792 34.121 43.3333 34.7145 43.3333 35.3333C43.3333 35.9522 43.5792 36.5457 44.0168 36.9833C44.4543 37.4208 45.0478 37.6667 45.6667 37.6667ZM16.2258 26.3115L16.731 24.25H14.4583C14.0716 24.25 13.7006 24.0964 13.4271 23.8229C13.1536 23.5494 13 23.1784 13 22.7917C13 22.4049 13.1536 22.034 13.4271 21.7605C13.7006 21.487 14.0716 21.3333 14.4583 21.3333H17.445L18.3702 17.5568C18.7584 15.9717 19.6673 14.5627 20.9512 13.5552C22.2351 12.5478 23.8198 12.0001 25.4518 12H42.1433C43.7278 12.0001 45.2691 12.5164 46.534 13.4706C47.7989 14.4248 48.7186 15.765 49.1538 17.2885L50.3088 21.3333H53.5428C53.7343 21.3333 53.924 21.3711 54.1009 21.4443C54.2778 21.5176 54.4386 21.6251 54.574 21.7605C54.7095 21.8959 54.8169 22.0567 54.8902 22.2336C54.9634 22.4105 55.0012 22.6002 55.0012 22.7917C55.0012 22.9832 54.9634 23.1728 54.8902 23.3497C54.8169 23.5267 54.7095 23.6874 54.574 23.8229C54.4386 23.9583 54.2778 24.0657 54.1009 24.139C53.924 24.2123 53.7343 24.25 53.5428 24.25H51.143L51.7263 26.2928C52.6854 26.6397 53.5143 27.2737 54.1001 28.1085C54.6859 28.9434 55.0001 29.9385 55 30.9583V51.375C55 52.3806 54.6005 53.345 53.8894 54.0561C53.1784 54.7672 52.2139 55.1667 51.2083 55.1667H47.125C46.1194 55.1667 45.155 54.7672 44.4439 54.0561C43.7328 53.345 43.3333 52.3806 43.3333 51.375V47.5833H24.6667V51.375C24.6667 52.3806 24.2672 53.345 23.5561 54.0561C22.845 54.7672 21.8806 55.1667 20.875 55.1667H16.7917C15.7861 55.1667 14.8216 54.7672 14.1106 54.0561C13.3995 53.345 13 52.3806 13 51.375V30.9583C13.0001 29.9474 13.3091 28.9605 13.8857 28.1301C14.4622 27.2996 15.2787 26.6651 16.2258 26.3115V26.3115ZM21.2028 18.251L19.3047 26H48.6078L46.348 18.09C46.0868 17.1757 45.535 16.3715 44.7759 15.7989C44.0168 15.2263 43.0918 14.9166 42.141 14.9167H25.453C24.4738 14.9168 23.5229 15.2454 22.7525 15.8499C21.9822 16.4544 21.4369 17.2999 21.204 18.251H21.2028ZM17.9583 28.9167C17.4168 28.9167 16.8975 29.1318 16.5147 29.5147C16.1318 29.8975 15.9167 30.4169 15.9167 30.9583V44.6667H52.0833V30.9583C52.0833 30.4169 51.8682 29.8975 51.4853 29.5147C51.1025 29.1318 50.5832 28.9167 50.0417 28.9167H17.9583ZM46.25 51.375C46.25 51.858 46.642 52.25 47.125 52.25H51.2083C51.4404 52.25 51.663 52.1578 51.8271 51.9937C51.9911 51.8296 52.0833 51.6071 52.0833 51.375V47.5833H46.25V51.375ZM15.9167 47.5833V51.375C15.9167 51.858 16.3087 52.25 16.7917 52.25H20.875C21.1071 52.25 21.3296 52.1578 21.4937 51.9937C21.6578 51.8296 21.75 51.6071 21.75 51.375V47.5833H15.9167Z" fill="#EF7E15"/>
</svg>
