<svg width="68" height="68" viewBox="0 0 68 68" fill="none" xmlns="http://www.w3.org/2000/svg">
<circle cx="34" cy="34" r="34" fill="white"/>
<path d="M54.5811 17.4926C54.2581 17.0319 53.829 16.6557 53.3299 16.3958C52.8308 16.136 52.2765 16.0002 51.7138 16H11.5C10.5721 16.001 9.68243 16.3701 9.02628 17.0263C8.37013 17.6824 8.00104 18.5721 8 19.5V46.625H12.4933C12.8008 48.3425 13.7025 49.8971 15.0405 51.0168C16.3785 52.1366 18.0677 52.7502 19.8125 52.7502C21.5573 52.7502 23.2465 52.1366 24.5845 51.0168C25.9225 49.8971 26.8242 48.3425 27.1317 46.625H40.4933C40.8008 48.3425 41.7025 49.8971 43.0405 51.0168C44.3785 52.1366 46.0677 52.7502 47.8125 52.7502C49.5573 52.7502 51.2465 52.1366 52.5845 51.0168C53.9225 49.8971 54.8242 48.3425 55.1317 46.625H60.5V26.7757C60.5008 26.237 60.3351 25.7113 60.0255 25.2704L54.5811 17.4926ZM25.9375 19.5H41.6875V30H25.9375V19.5ZM11.5 19.5H22.4375V30H11.5V19.5ZM19.8125 49.25C19.0337 49.25 18.2725 49.0191 17.6249 48.5864C16.9774 48.1538 16.4727 47.5388 16.1747 46.8193C15.8767 46.0998 15.7987 45.3081 15.9507 44.5443C16.1026 43.7805 16.4776 43.0789 17.0283 42.5283C17.5789 41.9776 18.2805 41.6026 19.0443 41.4507C19.8081 41.2987 20.5998 41.3767 21.3193 41.6747C22.0388 41.9727 22.6538 42.4774 23.0864 43.1249C23.5191 43.7725 23.75 44.5337 23.75 45.3125C23.7488 46.3564 23.3336 47.3573 22.5955 48.0955C21.8573 48.8336 20.8564 49.2488 19.8125 49.25ZM47.8125 49.25C47.0337 49.25 46.2725 49.0191 45.6249 48.5864C44.9774 48.1538 44.4727 47.5388 44.1747 46.8193C43.8767 46.0998 43.7987 45.3081 43.9507 44.5443C44.1026 43.7805 44.4776 43.0789 45.0283 42.5283C45.5789 41.9776 46.2805 41.6026 47.0443 41.4507C47.8081 41.2987 48.5998 41.3767 49.3193 41.6747C50.0388 41.9727 50.6538 42.4774 51.0864 43.1249C51.5191 43.7725 51.75 44.5337 51.75 45.3125C51.7488 46.3564 51.3336 47.3573 50.5955 48.0955C49.8573 48.8336 48.8564 49.2488 47.8125 49.25ZM57 43.125H54.9212C54.4535 41.6047 53.5107 40.2744 52.2313 39.3294C50.9518 38.3843 49.4031 37.8744 47.8125 37.8744C46.2219 37.8744 44.6732 38.3843 43.3937 39.3294C42.1143 40.2744 41.1715 41.6047 40.7038 43.125H26.9212C26.4535 41.6047 25.5107 40.2744 24.2313 39.3294C22.9518 38.3843 21.4031 37.8744 19.8125 37.8744C18.2219 37.8744 16.6732 38.3843 15.3937 39.3294C14.1143 40.2744 13.1715 41.6047 12.7038 43.125H11.5V33.5H57V43.125ZM57 30H45.1875V19.5H51.7138L57 27.0516V30Z" fill="#D52D2D"/>
</svg>
