<svg width="40" height="54" viewBox="0 0 40 54" fill="none" xmlns="http://www.w3.org/2000/svg">
<path d="M10.189 50.75C10.1157 50.75 10.0534 50.7243 10.002 50.673C9.95071 50.6217 9.92505 50.5593 9.92505 50.486V44.403H7.89005C7.81671 44.403 7.75438 44.3773 7.70305 44.326C7.65171 44.2747 7.62605 44.2123 7.62605 44.139V43.325C7.62605 43.2443 7.65171 43.1783 7.70305 43.127C7.75438 43.0757 7.81671 43.05 7.89005 43.05H13.5C13.5807 43.05 13.6467 43.0757 13.698 43.127C13.7494 43.1783 13.775 43.2443 13.775 43.325V44.139C13.775 44.2123 13.7494 44.2747 13.698 44.326C13.6467 44.3773 13.5807 44.403 13.5 44.403H11.476V50.486C11.476 50.5593 11.4504 50.6217 11.399 50.673C11.3477 50.7243 11.2817 50.75 11.201 50.75H10.189ZM14.2927 50.75C14.2194 50.75 14.1571 50.7243 14.1057 50.673C14.0544 50.6217 14.0287 50.5593 14.0287 50.486V45.305C14.0287 45.2243 14.0544 45.1583 14.1057 45.107C14.1571 45.0557 14.2194 45.03 14.2927 45.03H15.1837C15.2571 45.03 15.3194 45.0557 15.3707 45.107C15.4294 45.1583 15.4587 45.2243 15.4587 45.305V45.756C15.6274 45.5213 15.8437 45.3417 16.1077 45.217C16.3791 45.0923 16.6907 45.03 17.0427 45.03H17.4937C17.5744 45.03 17.6367 45.0557 17.6807 45.107C17.7321 45.1583 17.7577 45.2207 17.7577 45.294V46.086C17.7577 46.1593 17.7321 46.2217 17.6807 46.273C17.6367 46.3243 17.5744 46.35 17.4937 46.35H16.6357C16.2837 46.35 16.0087 46.449 15.8107 46.647C15.6201 46.845 15.5247 47.1163 15.5247 47.461V50.486C15.5247 50.5593 15.4991 50.6217 15.4477 50.673C15.3964 50.7243 15.3304 50.75 15.2497 50.75H14.2927ZM18.8796 50.75C18.8063 50.75 18.744 50.7243 18.6926 50.673C18.6413 50.6217 18.6156 50.5593 18.6156 50.486V45.294C18.6156 45.2207 18.6413 45.1583 18.6926 45.107C18.744 45.0557 18.8063 45.03 18.8796 45.03H19.7926C19.8733 45.03 19.9356 45.0557 19.9796 45.107C20.031 45.1583 20.0566 45.2207 20.0566 45.294V50.486C20.0566 50.5593 20.031 50.6217 19.9796 50.673C19.9356 50.7243 19.8733 50.75 19.7926 50.75H18.8796ZM18.8356 44.084C18.755 44.084 18.689 44.062 18.6376 44.018C18.5936 43.9667 18.5716 43.9007 18.5716 43.82V43.028C18.5716 42.9547 18.5936 42.8923 18.6376 42.841C18.689 42.7897 18.755 42.764 18.8356 42.764H19.8366C19.9173 42.764 19.9833 42.7897 20.0346 42.841C20.086 42.8923 20.1116 42.9547 20.1116 43.028V43.82C20.1116 43.9007 20.086 43.9667 20.0346 44.018C19.9833 44.062 19.9173 44.084 19.8366 44.084H18.8356ZM22.0166 52.84C21.9433 52.84 21.881 52.8143 21.8296 52.763C21.7783 52.7117 21.7526 52.6493 21.7526 52.576V45.294C21.7526 45.2207 21.7783 45.1583 21.8296 45.107C21.881 45.0557 21.9433 45.03 22.0166 45.03H22.8856C22.9663 45.03 23.0286 45.0557 23.0726 45.107C23.124 45.1583 23.1496 45.2207 23.1496 45.294V45.734C23.3256 45.4993 23.5566 45.305 23.8426 45.151C24.1286 44.997 24.4843 44.92 24.9096 44.92C25.2983 44.92 25.6356 44.9823 25.9216 45.107C26.2076 45.2317 26.446 45.4113 26.6366 45.646C26.8273 45.8733 26.974 46.1447 27.0766 46.46C27.1793 46.7753 27.238 47.1237 27.2526 47.505C27.26 47.6297 27.2636 47.758 27.2636 47.89C27.2636 48.022 27.26 48.154 27.2526 48.286C27.2453 48.6527 27.1903 48.9937 27.0876 49.309C26.985 49.617 26.8346 49.8883 26.6366 50.123C26.446 50.3503 26.2076 50.53 25.9216 50.662C25.6356 50.794 25.2983 50.86 24.9096 50.86C24.5136 50.86 24.1763 50.7903 23.8976 50.651C23.619 50.5043 23.3916 50.3137 23.2156 50.079V52.576C23.2156 52.6493 23.19 52.7117 23.1386 52.763C23.0946 52.8143 23.0323 52.84 22.9516 52.84H22.0166ZM24.5026 49.683C24.818 49.683 25.0636 49.617 25.2396 49.485C25.4156 49.3457 25.5403 49.166 25.6136 48.946C25.6943 48.726 25.742 48.484 25.7566 48.22C25.7713 48 25.7713 47.78 25.7566 47.56C25.742 47.296 25.6943 47.054 25.6136 46.834C25.5403 46.614 25.4156 46.438 25.2396 46.306C25.0636 46.1667 24.818 46.097 24.5026 46.097C24.202 46.097 23.9563 46.1667 23.7656 46.306C23.5823 46.4453 23.4466 46.625 23.3586 46.845C23.278 47.0577 23.2303 47.2777 23.2156 47.505C23.2083 47.637 23.2046 47.7763 23.2046 47.923C23.2046 48.0697 23.2083 48.2127 23.2156 48.352C23.223 48.572 23.2743 48.7847 23.3696 48.99C23.465 49.188 23.6043 49.353 23.7876 49.485C23.971 49.617 24.2093 49.683 24.5026 49.683ZM30.6655 50.86C30.2255 50.86 29.8478 50.8087 29.5325 50.706C29.2245 50.6033 28.9715 50.475 28.7735 50.321C28.5755 50.167 28.4288 50.013 28.3335 49.859C28.2381 49.705 28.1868 49.5767 28.1795 49.474C28.1721 49.3933 28.1941 49.331 28.2455 49.287C28.3041 49.2357 28.3665 49.21 28.4325 49.21H29.3015C29.3308 49.21 29.3565 49.2137 29.3785 49.221C29.4005 49.2283 29.4298 49.2503 29.4665 49.287C29.5618 49.3677 29.6608 49.452 29.7635 49.54C29.8735 49.628 30.0018 49.705 30.1485 49.771C30.2951 49.8297 30.4785 49.859 30.6985 49.859C30.9845 49.859 31.2228 49.804 31.4135 49.694C31.6115 49.5767 31.7105 49.4117 31.7105 49.199C31.7105 49.045 31.6665 48.9203 31.5785 48.825C31.4978 48.7297 31.3438 48.6453 31.1165 48.572C30.8891 48.4913 30.5665 48.407 30.1485 48.319C29.7378 48.2237 29.3968 48.1027 29.1255 47.956C28.8541 47.8093 28.6525 47.626 28.5205 47.406C28.3885 47.186 28.3225 46.9293 28.3225 46.636C28.3225 46.35 28.4068 46.0787 28.5755 45.822C28.7515 45.558 29.0081 45.3417 29.3455 45.173C29.6901 45.0043 30.1155 44.92 30.6215 44.92C31.0175 44.92 31.3621 44.9713 31.6555 45.074C31.9488 45.1693 32.1908 45.2903 32.3815 45.437C32.5795 45.5837 32.7298 45.734 32.8325 45.888C32.9351 46.0347 32.9901 46.163 32.9975 46.273C33.0048 46.3537 32.9828 46.4197 32.9315 46.471C32.8801 46.515 32.8215 46.537 32.7555 46.537H31.9415C31.9048 46.537 31.8718 46.5297 31.8425 46.515C31.8131 46.5003 31.7838 46.482 31.7545 46.46C31.6738 46.3867 31.5858 46.3097 31.4905 46.229C31.3951 46.1483 31.2778 46.0787 31.1385 46.02C31.0065 45.954 30.8305 45.921 30.6105 45.921C30.3318 45.921 30.1191 45.9833 29.9725 46.108C29.8258 46.2253 29.7525 46.3757 29.7525 46.559C29.7525 46.6837 29.7855 46.7937 29.8515 46.889C29.9248 46.977 30.0678 47.0613 30.2805 47.142C30.4931 47.2227 30.8158 47.307 31.2485 47.395C31.7398 47.483 32.1285 47.615 32.4145 47.791C32.7078 47.9597 32.9131 48.1577 33.0305 48.385C33.1551 48.605 33.2175 48.8507 33.2175 49.122C33.2175 49.452 33.1185 49.749 32.9205 50.013C32.7298 50.277 32.4438 50.486 32.0625 50.64C31.6885 50.7867 31.2228 50.86 30.6655 50.86Z" fill="white"/>
<g clip-path="url(#clip0_225_687)">
<path d="M5 21.6667H8.33333V18.3334H5V21.6667ZM5 28.3334H8.33333V25.0001H5V28.3334ZM5 15.0001H8.33333V11.6667H5V15.0001ZM11.6667 21.6667H35V18.3334H11.6667V21.6667ZM11.6667 28.3334H35V25.0001H11.6667V28.3334ZM11.6667 11.6667V15.0001H35V11.6667H11.6667Z" fill="white"/>
</g>
<defs>
<clipPath id="clip0_225_687">
<rect width="40" height="40" fill="white"/>
</clipPath>
</defs>
</svg>
