<svg width="32" height="36" viewBox="0 0 32 36" fill="none" xmlns="http://www.w3.org/2000/svg">
<path d="M16.0009 7.33325C14.1449 7.3356 12.3655 8.0732 11.0531 9.38428C9.7407 10.6954 9.00235 12.4729 9 14.327H12.5592C12.5592 12.4301 14.1039 10.8888 16.0009 10.8888C17.8979 10.8888 19.4426 12.4301 19.4426 14.327C19.4426 15.3901 18.5866 16.1617 17.2786 17.2177C16.8513 17.5521 16.4409 17.9075 16.0489 18.2826C14.2729 20.055 14.2213 21.9377 14.2213 22.1475V23.3333H17.7805L17.7787 22.2079C17.7805 22.1795 17.8374 21.5217 18.5635 20.7981C18.8304 20.5315 19.1668 20.2648 19.5156 19.9839C20.9019 18.8621 23 17.1679 23 14.327C22.9986 12.4729 22.2608 10.6951 20.9486 9.38387C19.6363 8.07264 17.8569 7.33514 16.0009 7.33325ZM14.2213 25.111H17.7805V28.6666H14.2213V25.111Z" fill="#8C0033"/>
<path d="M16 0.933594C7.1776 0.933594 0 8.5897 0 18.0003C0 27.4108 7.1776 35.0669 16 35.0669C24.8224 35.0669 32 27.4108 32 18.0003C32 8.5897 24.8224 0.933594 16 0.933594ZM16 31.6536C8.9424 31.6536 3.2 25.5284 3.2 18.0003C3.2 10.4722 8.9424 4.34693 16 4.34693C23.0576 4.34693 28.8 10.4722 28.8 18.0003C28.8 25.5284 23.0576 31.6536 16 31.6536Z" fill="#8C0033"/>
</svg>
